<svg id="Layer_1" data-name="Layer 1" xmlns="http://www.w3.org/2000/svg" viewBox="0 0 500 59.46"><defs><style>.cls-1{fill:#fff;}</style></defs><g id="B420LD"><path class="cls-1" d="M77.45.2V17.45l-.13.12-.7.71H18.07v23H48l-.09.09,18,18H0V.2ZM74.3,20.59l-9.22,9.19L76.62,41.32l.7.71V59.41H69.13L51,41.32h0l-2.57-2.56H20.39V20.68H48.61l.12-.09Z"/><path class="cls-1" d="M114.31.07l25.7,0-32.07,32h0L89.82,50.3H80.43V34l1.82-1.86Zm43.91,20.36v39H140.05V50.3H93.13l18.16-18.16h28.76V20.43Zm0-2.32H140.05L158.22,0Z"/><path class="cls-1" d="M216.14.2l18.09,18.08h-55L161.11.2Zm-9.39,20.44L188.67,38.72l-2.52,2.52h3.22v0l0,0h49.16v18H214.9v0H168l0,.09-.08-.09h-6.79V40.7l20.07-20.06Zm29.79-.05,2,2v16H214.9v.09h-23l18.12-18.08H211l0-.05Z"/><path class="cls-1" d="M304.15.15l14.53,14.53v3.51h-77.5V14.76L255.74.15Zm14.53,20.36V44.88L304.15,59.41H255.74L241.18,44.84V20.51H261l-1.74,1.74V37.31l4,4h33.39l3.93-3.93V22.17l-1.65-1.66Z"/><path class="cls-1" d="M321.7.07h18.16V18.24H321.7Zm18.16,20.48V41.37h59.63v18H321.7V20.55Z"/><path class="cls-1" d="M479.72.15V5.91L461.63,24V18.24H402.22V.15Zm0,9V34.79L455.14,59.41H402.22V20.55H420.3V41.32h27.31l14-14Z"/><path class="cls-1" d="M481.87,41.28H500V59.41H481.87Z"/></g></svg>