<svg id="Layer_1" data-name="Layer 1" xmlns="http://www.w3.org/2000/svg" viewBox="0 0 475.04 58.42"><defs><style>.cls-1{fill:none;stroke:#fff;stroke-miterlimit:10;}</style></defs><g id="B420LD"><path class="cls-1" d="M86.42,1.78V18.14l-.12.11-.67.67H30.12V40.77H58.45l-.08.08,17,17.07H13V1.78Zm-3,19.34-8.74,8.71L85.63,40.77l.67.67V57.92H78.53L61.35,40.77h0L59,38.34H32.32V21.2H59.07l.12-.08Z" transform="translate(-12.48 -0.34)"/><path class="cls-1" d="M121.37,1.66l24.36,0-30.4,30.36h0L98.15,49.28H89.24V33.83L91,32.06ZM163,21v37H145.77V49.28H101.28l17.23-17.22h27.26V21Zm0-2.2H145.77L163,1.54Z" transform="translate(-12.48 -0.34)"/><path class="cls-1" d="M217.91,1.78l17.14,17.14H182.88L165.74,1.78ZM209,21.16,191.86,38.3l-2.39,2.39h3.06v0l0,0h46.6V57.8H216.73v0H172.29l0,.08-.08-.08h-6.43V40.18l19-19Zm28.24,0L239.17,23V38.22H216.73v.08H195l17.18-17.14h.91l0,0Z" transform="translate(-12.48 -0.34)"/><path class="cls-1" d="M301.35,1.74l13.77,13.77v3.33H241.64V15.59L255.45,1.74ZM315.12,21V44.15L301.35,57.92h-45.9L241.64,44.11V21h18.79l-1.64,1.65V37l3.8,3.8h31.66L298,37.05V22.61L296.41,21Z" transform="translate(-12.48 -0.34)"/><path class="cls-1" d="M318,1.66H335.2V18.88H318ZM335.2,21.08V40.81h56.53V57.92H318V21.08Z" transform="translate(-12.48 -0.34)"/><path class="cls-1" d="M467.8,1.74V7.19L450.66,24.37V18.88H394.32V1.74Zm0,8.55V34.57L444.5,57.92H394.32V21.08h17.15V40.77h25.89l13.3-13.3Z" transform="translate(-12.48 -0.34)"/><path class="cls-1" d="M469.84,40.73H487V57.92H469.84Z" transform="translate(-12.48 -0.34)"/></g></svg>